<svg width="28" height="28" viewBox="0 0 28 28" fill="none" xmlns="http://www.w3.org/2000/svg">
<g id="cog--work-loading-cog-gear-settings-machine" clip-path="url(#clip0_39_55)">
<g id="cog--work-loading-cog-gear-settings-machine_2">
<path id="Subtract" fill-rule="evenodd" clip-rule="evenodd" d="M10.8566 1.33251L9.84782 3.6436L6.37592 5.39251L3.6078 5.01774C3.14689 4.96221 2.67777 5.02957 2.26005 5.21122C1.84236 5.39288 1.49492 5.68064 1.26193 6.03795L0.323584 7.49538C0.0831358 7.85838 -0.0276465 8.27757 0.00585811 8.6976C0.0393627 9.11764 0.215581 9.51879 0.511254 9.84811L2.27066 11.7844V15.2823L0.55817 17.2186C0.262498 17.5479 0.0862813 17.949 0.0527768 18.3691C0.01927 18.7891 0.130052 19.2083 0.3705 19.5713L1.30885 21.0287C1.54184 21.386 1.88928 21.6738 2.30698 21.8554C2.72467 22.0371 3.19379 22.1044 3.65472 22.0489L6.42284 21.6742L9.84782 23.4231L10.8566 25.7342C11.0267 26.1255 11.326 26.4621 11.7152 26.6997C12.1045 26.9375 12.5657 27.0655 13.0382 27.0667H15.0087C15.4813 27.0655 15.9424 26.9375 16.3317 26.6997C16.721 26.4621 17.0203 26.1255 17.1904 25.7342L18.1991 23.4231L21.6241 21.6742L24.3923 22.0489C24.8532 22.1044 25.3222 22.0371 25.74 21.8554C26.1576 21.6738 26.505 21.386 26.7381 21.0287L27.6765 19.5713C27.9168 19.2083 28.0277 18.7891 27.9941 18.3691C27.9606 17.949 27.7844 17.5479 27.4888 17.2186L25.7293 15.2823V11.7844L27.4419 9.84811C27.7375 9.51879 27.9137 9.11764 27.9473 8.6976C27.9808 8.27757 27.87 7.85838 27.6295 7.49538L26.6911 6.03795C26.4582 5.68064 26.1108 5.39288 25.693 5.21122C25.2754 5.02957 24.8062 4.96221 24.3452 5.01774L21.5773 5.39251L18.1522 3.6436L17.1435 1.33251C16.9734 0.94122 16.674 0.60465 16.2848 0.366883C15.8955 0.129116 15.4344 0.00123894 14.9618 0H13.0382C12.5657 0.00123894 12.1045 0.129116 11.7152 0.366883C11.326 0.60465 11.0267 0.94122 10.8566 1.33251ZM14 17.8833C16.7069 17.8833 18.9012 15.9358 18.9012 13.5333C18.9012 11.1309 16.7069 9.18333 14 9.18333C11.2932 9.18333 9.09883 11.1309 9.09883 13.5333C9.09883 15.9358 11.2932 17.8833 14 17.8833Z" fill="#002D42"/>
</g>
</g>
<defs>
<clipPath id="clip0_39_55">
<rect width="28" height="27.0667" fill="white"/>
</clipPath>
</defs>
</svg>
