<svg width="20" height="15" viewBox="0 0 20 15" fill="none" xmlns="http://www.w3.org/2000/svg">
<g id="delete-keyboard">
<path id="Subtract" fill-rule="evenodd" clip-rule="evenodd" d="M4.17482 13.6832C4.77325 14.4798 5.6497 14.9389 6.57262 14.9389H16.3086C18.048 14.9389 19.4583 13.3398 19.4583 11.3674V3.63262C19.4583 1.66017 18.048 0.0611877 16.3086 0.0611877H6.57262C5.6497 0.0611877 4.77325 0.520188 4.17482 1.31688L1.26996 5.18429C0.267518 6.51888 0.267518 8.48117 1.26996 9.81576L4.17482 13.6832ZM7.58367 3.47374C7.96805 3.03788 8.59125 3.03788 8.97561 3.47374L11.1012 5.88399L13.2268 3.47374C13.6112 3.03788 14.2343 3.03788 14.6187 3.47374C15.0031 3.9096 15.0031 4.61624 14.6187 5.0521L12.4931 7.46237L14.6188 9.87265C15.0031 10.3085 15.0031 11.0152 14.6188 11.451C14.2344 11.8869 13.6112 11.8869 13.2268 11.451L11.1012 9.04072L8.97558 11.451C8.59122 11.8869 7.96802 11.8869 7.58364 11.451C7.19926 11.0152 7.19926 10.3085 7.58364 9.87265L9.70926 7.46237L7.58367 5.0521C7.19929 4.61624 7.19929 3.9096 7.58367 3.47374Z" fill="#03334A"/>
</g>
</svg>
