<svg width="28" height="19" viewBox="0 0 28 19" fill="none" xmlns="http://www.w3.org/2000/svg">
<g id="Joystick Icon">
<path d="M9.33333 12.4444H10.8889V14H9.33333V12.4444Z" fill="white"/>
<path d="M17.1111 12.4444H18.6667V14H17.1111V12.4444Z" fill="white"/>
<path d="M3.11111 6.22222H4.66667V7.77778H3.11111V6.22222Z" fill="white"/>
<path d="M9.33333 12.4444H10.8889V14H9.33333V12.4444Z" fill="white"/>
<path d="M1.55556 1.55556H3.11111V3.11111H1.55556V1.55556Z" fill="white"/>
<path d="M24.8889 1.55556H26.4444V3.11111H24.8889V1.55556Z" fill="white"/>
<path d="M17.1111 12.4444H18.6667V14H17.1111V12.4444Z" fill="white"/>
<path d="M21.7778 7.77778H23.3333V9.33333H21.7778V7.77778Z" fill="white"/>
<path d="M23.3333 6.22222H24.8889V7.77778H23.3333V6.22222Z" fill="white"/>
<path d="M24.8889 15.5556H26.4444V17.1111H24.8889V15.5556Z" fill="white"/>
<path d="M1.55556 15.5556H3.11111V17.1111H1.55556V15.5556Z" fill="white"/>
<path d="M4.66667 4.66667H6.22222V6.22222H4.66667V4.66667Z" fill="white"/>
<path d="M6.22222 6.22222H7.77778V7.77778H6.22222V6.22222Z" fill="white"/>
<path d="M4.66667 7.77778H6.22222V9.33333H4.66667V7.77778Z" fill="white"/>
<path d="M20.2222 6.22223H21.7778L21.7778 7.77778L20.2222 7.77779V6.22223Z" fill="white"/>
<path d="M21.7778 4.66667H23.3333L23.3333 6.22222L21.7778 6.22223L21.7778 4.66667Z" fill="white"/>
<path d="M10.8889 10.8889V12.4444H17.1111L17.1111 10.8889H10.8889Z" fill="white"/>
<path d="M7.77777 17.1111L9.33334 17.1111L9.33333 14L7.77778 14L7.77777 17.1111Z" fill="white"/>
<path d="M7.77777 18.6667V17.1111L3.11111 17.1111V18.6667L7.77777 18.6667Z" fill="white"/>
<path d="M1.55556 3.11111H0V15.5556H1.55556V3.11111Z" fill="white"/>
<path d="M3.11111 0V1.55556H9.33333V0H3.11111Z" fill="white"/>
<path d="M18.6667 3.11111V1.55556H9.33333V3.11111H18.6667Z" fill="white"/>
<path d="M24.8889 1.55556V0H18.6667V1.55556H24.8889Z" fill="white"/>
<path d="M28 3.11111H26.4444V15.5556H28V3.11111Z" fill="white"/>
<path d="M20.2222 17.1111L20.2222 18.6667L24.8889 18.6667V17.1111L20.2222 17.1111Z" fill="white"/>
<path d="M18.6667 17.1111H20.2222V14L18.6667 14L18.6667 17.1111Z" fill="white"/>
</g>
</svg>
