<svg width="18" height="20" viewBox="0 0 18 20" fill="none" xmlns="http://www.w3.org/2000/svg">
<g id="Group 734">
<path id="Vector 77" fill-rule="evenodd" clip-rule="evenodd" d="M7.83333 18.1666H10.1667V17H11.3333V15.8333H12.5V14.6666H13.6667V13.5H14.8333V11.1666H16V5.33331H14.8333V2.99998H12.5V1.83331H5.5V2.99998H3.16667V5.33331H2V11.1666H3.16667V13.5H4.33333V14.6666H5.5V15.8333H6.66667V17H7.83333V18.1666ZM6.66667 7.66665H5.5V9.99998H6.66667V11.1666H7.83333V12.3333H10.1667V11.1666H11.3333V9.99998H12.5V7.66665H11.3333V6.49998H10.1667V5.33331H7.83333V6.49998H6.66667V7.66665Z" fill="#FF5C00"/>
<g id="Vector">
<path d="M3.16666 13.5H4.33333V14.6667H3.16666V13.5Z" fill="#FF5C00"/>
<path d="M4.33333 14.6667H5.49999V15.8333H4.33333V14.6667Z" fill="#FF5C00"/>
<path d="M5.49999 15.8333H6.66666V17H5.49999V15.8333Z" fill="#FF5C00"/>
<path d="M6.66666 17H7.83333V18.1667H6.66666V17Z" fill="#FF5C00"/>
<path d="M10.1667 17H11.3333V18.1667H10.1667V17Z" fill="#FF5C00"/>
<path d="M11.3333 15.8333H12.5V17H11.3333V15.8333Z" fill="#FF5C00"/>
<path d="M12.5 14.6667H13.6667V15.8333H12.5V14.6667Z" fill="#FF5C00"/>
<path d="M13.6667 13.5H14.8333V14.6667H13.6667V13.5Z" fill="#FF5C00"/>
<path d="M7.83333 7.66666H6.66666V6.49999L7.83333 6.49999V7.66666Z" fill="#FF5C00"/>
<path d="M11.3333 7.66666H10.1667V6.49999H11.3333V7.66666Z" fill="#FF5C00"/>
<path d="M11.3333 11.1667H10.1667V9.99999H11.3333V11.1667Z" fill="#FF5C00"/>
<path d="M7.83333 11.1667H6.66666V9.99999H7.83333V11.1667Z" fill="#FF5C00"/>
<path d="M6.66666 7.66666H5.49999V9.99999H6.66666V7.66666Z" fill="#FF5C00"/>
<path d="M10.1667 6.49999V5.33332L7.83333 5.33332V6.49999H10.1667Z" fill="#FF5C00"/>
<path d="M11.3333 9.99999H12.5V7.66666H11.3333V9.99999Z" fill="#FF5C00"/>
<path d="M7.83333 11.1667V12.3333H10.1667V11.1667H7.83333Z" fill="#FF5C00"/>
<path d="M0.833328 11.1667H1.99999V5.33332H0.833328V11.1667Z" fill="#FF5C00"/>
<path d="M3.16666 11.1667H1.99999V13.5H3.16666V11.1667Z" fill="#FF5C00"/>
<path d="M3.16666 2.99999H1.99999V5.33332H3.16666V2.99999Z" fill="#FF5C00"/>
<path d="M12.5 1.83332V0.666656H5.49999V1.83332H12.5Z" fill="#FF5C00"/>
<path d="M5.49999 2.99999V1.83332H3.16666V2.99999H5.49999Z" fill="#FF5C00"/>
<path d="M14.8333 2.99999V1.83332H12.5V2.99999H14.8333Z" fill="#FF5C00"/>
<path d="M16 2.99999H14.8333V5.33332H16V2.99999Z" fill="#FF5C00"/>
<path d="M16 11.1667H17.1667V5.33332H16V11.1667Z" fill="#FF5C00"/>
<path d="M14.8333 13.5H16V11.1667H14.8333V13.5Z" fill="#FF5C00"/>
<path d="M10.1667 19.3333V18.1667H7.83333V19.3333H10.1667Z" fill="#FF5C00"/>
</g>
</g>
</svg>
