<svg width="20" height="20" viewBox="0 0 20 20" fill="none" xmlns="http://www.w3.org/2000/svg">
<g id="Lookup Icon">
<path d="M4.28571 2.85714H2.85714V1.42857H4.28571V2.85714Z" fill="white"/>
<path d="M2.85714 4.28571H1.42857V2.85714L2.85714 2.85714V4.28571Z" fill="white"/>
<path d="M4.28571 14.2857H2.85714V12.8571H4.28571V14.2857Z" fill="white"/>
<path d="M12.8571 2.85714H11.4286V1.42857L12.8571 1.42857V2.85714Z" fill="white"/>
<path d="M14.2857 4.28571H12.8571V2.85714H14.2857V4.28571Z" fill="white"/>
<path d="M15.7143 15.7143H14.2857V14.2857H15.7143V15.7143Z" fill="white"/>
<path d="M17.1429 17.1429H15.7143V15.7143H17.1429V17.1429Z" fill="white"/>
<path d="M18.5714 18.5714H17.1429V17.1429H18.5714V18.5714Z" fill="white"/>
<path d="M20 20H18.5714V18.5714H20V20Z" fill="white"/>
<path d="M2.85714 12.8571H1.42857V11.4286H2.85714V12.8571Z" fill="white"/>
<path d="M12.8571 11.4286V12.8571H11.4286V14.2857H14.2857V11.4286H12.8571Z" fill="white"/>
<path d="M15.7143 4.28571H14.2857V11.4286H15.7143V4.28571Z" fill="white"/>
<path d="M4.28571 6.24449e-08V1.42857L11.4286 1.42857V0L4.28571 6.24449e-08Z" fill="white"/>
<path d="M0 11.4286H1.42857V4.28571H3.12224e-08L0 11.4286Z" fill="white"/>
<path d="M4.28571 14.2857V15.7143H11.4286V14.2857H4.28571Z" fill="white"/>
</g>
</svg>
