<svg width="24" height="24" viewBox="0 0 24 24" fill="none" xmlns="http://www.w3.org/2000/svg">
<path d="M14 4V5H10V4H14Z" fill="#38AB48"/>
<path d="M16 6H14V5H16V6Z" fill="#38AB48"/>
<path d="M17 7H16V6H17V7Z" fill="#38AB48"/>
<path d="M18 8H17V7H18V8Z" fill="#38AB48"/>
<path fill-rule="evenodd" clip-rule="evenodd" d="M19 10H18V8H19V10ZM19 10H20V15H19V10Z" fill="#38AB48"/>
<path d="M9 6V7H5V6H9Z" fill="#38AB48"/>
<path d="M5 13H4V7H5V13Z" fill="#38AB48"/>
<path d="M6 15H5V13H6V15Z" fill="#38AB48"/>
<path d="M7 16H6V15H7V16Z" fill="#38AB48"/>
<path d="M8 17H7V16H8V17Z" fill="#38AB48"/>
<path d="M9 18H8V17H9V18Z" fill="#38AB48"/>
<path d="M11 19H9V18H11V19Z" fill="#38AB48"/>
<path d="M17 19V20H11V19H17Z" fill="#38AB48"/>
<path fill-rule="evenodd" clip-rule="evenodd" d="M14 15V14H17V15H14ZM17 15H18V19H17V15Z" fill="#38AB48"/>
<path d="M13 16V15H14V16H13Z" fill="#38AB48"/>
<path d="M11 16H13V17H11V16Z" fill="#38AB48"/>
<path fill-rule="evenodd" clip-rule="evenodd" d="M9 14H10V15H9V14ZM10 15H11V16H10V15Z" fill="#38AB48"/>
<path fill-rule="evenodd" clip-rule="evenodd" d="M8 11V13H7V11H8ZM8 13H9V14H8V13Z" fill="#38AB48"/>
<path d="M9 10V11H8V10H9Z" fill="#38AB48"/>
<path d="M9 10H10V7H9V10Z" fill="#38AB48"/>
<path d="M11 7V8H14V9H15V10H16V13H17V10H16V9H15V8H14V7H11Z" fill="#38AB48"/>
<path d="M5 7H9V10H8V11H7V13H8V14H9V15H10V16H11V17H13V16H14V15H17V19H11V18H9V17H8V16H7V15H6V13H5V7Z" fill="#38AB48"/>
</svg>
